<?xml version="1.0" encoding="UTF-8" standalone="no"?>
<!-- Created with Inkscape (http://www.inkscape.org/) -->

<svg
   xmlns:dc="http://purl.org/dc/elements/1.1/"
   xmlns:cc="http://creativecommons.org/ns#"
   xmlns:rdf="http://www.w3.org/1999/02/22-rdf-syntax-ns#"
   xmlns:svg="http://www.w3.org/2000/svg"
   xmlns="http://www.w3.org/2000/svg"
   xmlns:sodipodi="http://sodipodi.sourceforge.net/DTD/sodipodi-0.dtd"
   xmlns:inkscape="http://www.inkscape.org/namespaces/inkscape"
   width="210mm"
   height="297mm"
   id="svg2"
   version="1.1"
   inkscape:version="0.91 r13725"
   sodipodi:docname="icon.svg">
  <defs
     id="defs4">
    <mask
       maskUnits="userSpaceOnUse"
       id="mask3835">
      <rect
         style="fill:#ffffff;fill-opacity:1;stroke:none"
         id="rect3837"
         width="104.55079"
         height="111.11678"
         x="380.82751"
         y="301.81888" />
    </mask>
    <mask
       maskUnits="userSpaceOnUse"
       id="mask3876">
      <rect
         y="252.32141"
         x="378.55466"
         height="23.233511"
         width="109.34901"
         id="rect3878"
         style="fill:#ffffff;fill-opacity:1;stroke:none" />
    </mask>
    <mask
       id="mask7157"
       maskUnits="userSpaceOnUse">
      <ellipse
         transform="matrix(0.91029821,0,0,1.0146033,-665.82559,553.36463)"
         id="path7159"
         style="fill:#f2f2f2;fill-opacity:1;stroke:#131313;stroke-width:11.40913773;stroke-linecap:square;stroke-linejoin:round;stroke-miterlimit:4;stroke-dasharray:none;stroke-opacity:1"
         cx="288.57144"
         cy="237.71428"
         rx="305.71429"
         ry="274.28571" />
    </mask>
    <linearGradient
       id="linearGradient6123">
      <stop
         id="stop6125"
         offset="0"
         style="stop-color:#f5f5f5;stop-opacity:1;" />
      <stop
         id="stop6127"
         offset="1"
         style="stop-color:#f5f5f5;stop-opacity:0;" />
    </linearGradient>
    <mask
       maskUnits="userSpaceOnUse"
       id="mask3835-1">
      <rect
         style="fill:#ffffff;fill-opacity:1;stroke:none"
         id="rect3837-1"
         width="104.55079"
         height="111.11678"
         x="380.82751"
         y="301.81888" />
    </mask>
  </defs>
  <sodipodi:namedview
     id="base"
     pagecolor="#ffffff"
     bordercolor="#666666"
     borderopacity="1.0"
     inkscape:pageopacity="0.0"
     inkscape:pageshadow="2"
     inkscape:zoom="0.61670912"
     inkscape:cx="-770.32406"
     inkscape:cy="655.16929"
     inkscape:document-units="px"
     inkscape:current-layer="layer2"
     showgrid="false"
     inkscape:window-width="1920"
     inkscape:window-height="1017"
     inkscape:window-x="-8"
     inkscape:window-y="-8"
     inkscape:window-maximized="1"
     units="mm"
     showguides="false">
    <inkscape:grid
       type="xygrid"
       id="grid3759"
       empspacing="5"
       visible="true"
       enabled="true"
       snapvisiblegridlinesonly="true" />
  </sodipodi:namedview>
  <metadata
     id="metadata7">
    <rdf:RDF>
      <cc:Work
         rdf:about="">
        <dc:format>image/svg+xml</dc:format>
        <dc:type
           rdf:resource="http://purl.org/dc/dcmitype/StillImage" />
        <dc:title></dc:title>
      </cc:Work>
    </rdf:RDF>
  </metadata>
  <g
     inkscape:label="icon1"
     inkscape:groupmode="layer"
     id="layer1"
     style="display:inline"
     transform="translate(0,3.472441e-5)"
     sodipodi:insensitive="true">
    <g
       transform="translate(2.5881322,3.4464678)"
       id="layer1-7"
       inkscape:label="レイヤー 1">
      <rect
         y="540.36218"
         x="0"
         height="512"
         width="512"
         id="rect7161"
         style="fill:#f2f2f2;fill-opacity:1;stroke:none" />
      <ellipse
         transform="matrix(0.82120551,0,0,0.91530203,19.023542,578.78182)"
         id="path5337"
         style="fill:#ffffff;fill-opacity:1;stroke:#131313;stroke-width:11.40913773;stroke-linecap:square;stroke-linejoin:round;stroke-miterlimit:4;stroke-dasharray:none;stroke-opacity:1"
         cx="288.57144"
         cy="237.71428"
         rx="305.71429"
         ry="274.28571" />
      <path
         sodipodi:nodetypes="cc"
         transform="translate(0,540.36218)"
         inkscape:connector-curvature="0"
         id="path6107"
         d="M 512,0 0,512"
         style="fill:none;stroke:#000000;stroke-width:10;stroke-linecap:butt;stroke-linejoin:miter;stroke-miterlimit:4;stroke-dasharray:none;stroke-opacity:1" />
      <text
         sodipodi:linespacing="125%"
         id="text6113"
         y="804.24854"
         x="86.344521"
         style="font-style:normal;font-variant:normal;font-weight:normal;font-stretch:normal;font-size:271.1960144px;line-height:125%;font-family:Arial;-inkscape-font-specification:Arial;letter-spacing:0px;word-spacing:0px;fill:#141414;fill-opacity:1;stroke:none"
         xml:space="preserve"><tspan
           y="804.24854"
           x="86.344521"
           id="tspan6115"
           sodipodi:role="line">8</tspan></text>
      <text
         sodipodi:linespacing="125%"
         id="text6117"
         y="984.00519"
         x="270.24002"
         style="font-style:normal;font-variant:normal;font-weight:normal;font-stretch:normal;font-size:271.1960144px;line-height:125%;font-family:Rune;-inkscape-font-specification:Rune;letter-spacing:0px;word-spacing:0px;fill:#141414;fill-opacity:1;stroke:none"
         xml:space="preserve"><tspan
           style="font-style:normal;font-variant:normal;font-weight:normal;font-stretch:normal;font-family:Arial;-inkscape-font-specification:Arial;fill:#141414;fill-opacity:1;stroke:none"
           y="984.00519"
           x="270.24002"
           id="tspan6119"
           sodipodi:role="line">1</tspan></text>
    </g>
  </g>
  <g
     inkscape:groupmode="layer"
     id="layer2"
     inkscape:label="icon2"
     style="display:inline"
     transform="translate(0,3.472441e-5)"
     sodipodi:insensitive="true">
    <path
       style="display:inline;fill:#afafaf;fill-opacity:1;stroke:#262626;stroke-width:35.54944611;stroke-linecap:butt;stroke-linejoin:miter;stroke-miterlimit:4;stroke-dasharray:none;stroke-opacity:1"
       d="m 503.90757,249.30433 c 0,80.9038 0,161.80761 0,242.7113"
       id="path2989-5"
       inkscape:connector-curvature="0" />
    <path
       style="font-style:normal;font-weight:normal;font-size:414.92062378px;line-height:125%;font-family:Sans;letter-spacing:0px;word-spacing:0px;fill:#141414;fill-opacity:1;stroke:none"
       d="m 541.81183,160.67107 c -25.1658,-7.58245 -45.0002,-31.06407 -44.52882,-57.91608 -2.96121,-39.466643 30.5227,-74.672583 69.05816,-78.185883 35.19745,-5.49786 75.50744,6.94873 93.24008,39.85702 16.85466,28.76127 11.28534,71.949413 -19.52061,89.032253 -7.79415,4.94646 -21.73337,7.50024 -5.18402,10.94025 32.20133,12.46054 50.15983,48.31787 45.69891,81.78146 -2.84538,43.00931 -41.83392,77.67107 -84.11059,79.98819 -35.82153,4.3056 -75.47276,-8.06111 -96.0211,-39.22168 -22.93788,-33.56728 -21.26382,-86.46723 12.2999,-112.54466 8.56339,-6.59812 18.64455,-11.0206 29.06809,-13.73087 z M 534.5183,98.878677 c -1.57233,25.426543 20.77442,48.286583 46.148,47.760933 26.9274,3.02816 53.32621,-20.7265 50.63959,-48.217133 -0.13254,-28.02145 -28.92967,-49.58135 -55.94278,-44.45553 -22.14399,2.2935 -41.44717,22.25249 -40.84481,44.91173 z M 522.76762,236.03751 c -1.01205,29.82092 22.34071,57.92467 52.5108,60.27924 31.27287,5.42565 64.79944,-17.38041 67.84181,-49.65944 5.76279,-31.21225 -16.39804,-64.43462 -48.17083,-69.10722 -30.22205,-6.90453 -64.17992,12.36267 -70.52977,43.36387 -1.14615,4.95321 -1.65301,10.0432 -1.65201,15.12355 z"
       id="text2985"
       inkscape:connector-curvature="0" />
    <path
       style="fill:none;stroke:#ff0101;stroke-width:35.54944611;stroke-linecap:butt;stroke-linejoin:miter;stroke-miterlimit:4;stroke-dasharray:none;stroke-opacity:1"
       d="m 662.57952,249.30462 c 0,80.9038 0,161.80761 0,242.71141"
       id="path2989"
       inkscape:connector-curvature="0" />
    <g
       style="font-style:normal;font-weight:normal;font-size:144px;line-height:125%;font-family:Sans;letter-spacing:0px;word-spacing:0px;fill:#ff0000;fill-opacity:1;stroke:none"
       id="text2985-1"
       transform="matrix(2.8813931,0,0,2.8813931,-509.70248,-633.75932)"
       mask="url(#mask3835-1)">
      <path
         style="fill:#ff0000"
         d="m 364.96854,275.57828 c -8.7339,-2.63152 -15.61752,-10.78092 -15.45392,-20.10003 -1.0277,-13.69706 10.59303,-25.91544 23.96693,-27.13474 12.21543,-1.90805 26.20518,2.41158 32.35937,13.83255 5.84948,9.98172 3.91663,24.97035 -6.77471,30.89902 -2.70499,1.71669 -7.54266,2.603 -1.79913,3.79686 11.17561,4.32448 17.40818,16.76893 15.86,28.38262 -0.9875,14.92656 -14.51864,26.95608 -29.19094,27.76024 -12.43202,1.49428 -26.19315,-2.79764 -33.32454,-13.61205 -7.96069,-11.64967 -7.37971,-30.00883 4.26873,-39.05911 2.97196,-2.28991 6.47067,-3.82475 10.08821,-4.76536 z m -2.53125,-21.44531 c -0.5457,8.82439 7.20985,16.75805 16.01586,16.57563 9.34527,1.05093 18.50709,-7.19322 17.57469,-16.73396 -0.046,-9.72497 -10.04017,-17.20742 -19.41519,-15.42848 -7.69431,0.80498 -14.3774,7.71201 -14.17536,15.58681 z m -4.07813,47.60156 c -0.35123,10.34948 7.75344,20.103 18.2241,20.92017 10.85338,1.883 22.48893,-6.03195 23.54479,-17.23452 2.00001,-10.83235 -5.69101,-22.36231 -16.71789,-23.98397 -10.48869,-2.39624 -22.27391,4.29052 -24.47766,15.04962 -0.39778,1.71905 -0.57369,3.48553 -0.57334,5.2487 z"
         id="path3783"
         inkscape:connector-curvature="0" />
    </g>
  </g>
  <g
     inkscape:groupmode="layer"
     id="layer3"
     inkscape:label="icon3"
     sodipodi:insensitive="true">
    <path
       style="fill:none;fill-opacity:1;fill-rule:evenodd;stroke:#7c7c7c;stroke-width:6.94324684;stroke-linecap:butt;stroke-linejoin:miter;stroke-miterlimit:4;stroke-dasharray:none;stroke-opacity:1"
       d="M 296.02544,52.900924 222.91701,217.12228"
       id="path4168"
       inkscape:connector-curvature="0"
       sodipodi:nodetypes="cc" />
    <text
       xml:space="preserve"
       style="font-style:normal;font-weight:normal;font-size:144.52009583px;line-height:125%;font-family:sans-serif;letter-spacing:0px;word-spacing:0px;fill:#000000;fill-opacity:1;stroke:none;stroke-width:1px;stroke-linecap:butt;stroke-linejoin:miter;stroke-opacity:1"
       x="72.204185"
       y="144.63586"
       id="text4146"
       sodipodi:linespacing="125%"
       transform="scale(0.8103102,1.2340953)"><tspan
         sodipodi:role="line"
         id="tspan4148"
         x="72.204185"
         y="144.63586"
         style="font-style:normal;font-variant:normal;font-weight:100;font-stretch:normal;font-family:'AR JULIAN';-inkscape-font-specification:'AR JULIAN Thin'">Aug</tspan></text>
    <text
       xml:space="preserve"
       style="font-style:normal;font-weight:normal;font-size:144.52009583px;line-height:125%;font-family:sans-serif;letter-spacing:0px;word-spacing:0px;fill:#000000;fill-opacity:1;stroke:none;stroke-width:1px;stroke-linecap:butt;stroke-linejoin:miter;stroke-opacity:1"
       x="330.76779"
       y="170.89905"
       id="text4146-9"
       sodipodi:linespacing="125%"
       transform="scale(0.8103102,1.2340953)"><tspan
         sodipodi:role="line"
         id="tspan4148-1"
         x="330.76779"
         y="170.89905"
         style="font-style:normal;font-variant:normal;font-weight:100;font-stretch:normal;font-family:'AR JULIAN';-inkscape-font-specification:'AR JULIAN Thin'">1st</tspan></text>
    <rect
       style="opacity:1;fill:none;fill-opacity:1;stroke:#383838;stroke-width:6.94299984;stroke-linejoin:round;stroke-miterlimit:4;stroke-dasharray:none;stroke-opacity:1"
       id="rect4170"
       width="367.19562"
       height="163.78406"
       x="53.722782"
       y="52.971706" />
  </g>
</svg>
